<svg width="18" height="18" viewBox="0 0 18 18" fill="none" xmlns="http://www.w3.org/2000/svg">
<path d="M0.666504 9.16671H17.3332V16.6667C17.3332 16.8877 17.2454 17.0997 17.0891 17.256C16.9328 17.4122 16.7209 17.5 16.4998 17.5H1.49984C1.27882 17.5 1.06686 17.4122 0.910582 17.256C0.754301 17.0997 0.666504 16.8877 0.666504 16.6667V9.16671ZM13.1665 2.50004H16.4998C16.7209 2.50004 16.9328 2.58784 17.0891 2.74412C17.2454 2.9004 17.3332 3.11236 17.3332 3.33337V7.50004H0.666504V3.33337C0.666504 3.11236 0.754301 2.9004 0.910582 2.74412C1.06686 2.58784 1.27882 2.50004 1.49984 2.50004H4.83317V0.833374H6.49984V2.50004H11.4998V0.833374H13.1665V2.50004Z" fill="#D7D9DA"/>
</svg>
