<svg width="21" height="20" viewBox="0 0 21 20" fill="none" xmlns="http://www.w3.org/2000/svg">
<path fill-rule="evenodd" clip-rule="evenodd" d="M17.5 3H16.5V1C16.5 0.447715 16.0523 0 15.5 0C14.9477 0 14.5 0.447715 14.5 1V3H6.5V1C6.5 0.447715 6.05228 0 5.5 0C4.94772 0 4.5 0.447715 4.5 1V3H3.5C1.84315 3 0.5 4.34315 0.5 6V17C0.5 18.6569 1.84315 20 3.5 20H17.5C19.1569 20 20.5 18.6569 20.5 17V6C20.5 4.34315 19.1569 3 17.5 3ZM2.50002 6.00002C2.50002 5.44773 2.94773 5.00002 3.50002 5.00002H17.5C18.0523 5.00002 18.5 5.44773 18.5 6.00002V7.00002H2.50002V6.00002ZM17.5 18C18.0523 18 18.5 17.5523 18.5 17V9H2.50002V17C2.50002 17.5523 2.94773 18 3.50002 18H17.5Z" fill="#909090"/>
</svg>
