<svg width="21" height="20" viewBox="0 0 21 20" fill="none" xmlns="http://www.w3.org/2000/svg">
<path d="M17.5 6C16.793 5.99823 16.1082 6.24685 15.567 6.70179C15.0257 7.15673 14.6631 7.7886 14.5433 8.4854C14.4235 9.1822 14.5542 9.89892 14.9124 10.5085C15.2706 11.1181 15.833 11.5812 16.5 11.8157V13.5C16.5 14.6935 16.0259 15.8381 15.182 16.682C14.3381 17.5259 13.1935 18 12 18C10.8065 18 9.66195 17.5259 8.81804 16.682C7.97412 15.8381 7.50002 14.6935 7.50002 13.5V12.4805L10.624 9.98193C11.2108 9.51463 11.6843 8.92072 12.0091 8.24463C12.334 7.56853 12.5018 6.82773 12.5 6.07764V1C12.5 0.734784 12.3947 0.48043 12.2071 0.292893C12.0196 0.105357 11.7652 0 11.5 0H9.50002C9.2348 0 8.98044 0.105357 8.79291 0.292893C8.60537 0.48043 8.50002 0.734784 8.50002 1C8.50002 1.26522 8.60537 1.51957 8.79291 1.70711C8.98044 1.89464 9.2348 2 9.50002 2H10.5V6.07764C10.5011 6.52771 10.4004 6.97221 10.2055 7.3779C10.0106 7.78359 9.72655 8.13997 9.37453 8.42041L6.50002 10.7192L3.62601 8.42041C3.27383 8.14008 2.98961 7.78373 2.79462 7.37802C2.59963 6.97232 2.49891 6.52777 2.50001 6.07764V2H3.50002C3.76523 2 4.01959 1.89464 4.20712 1.70711C4.39466 1.51957 4.50001 1.26522 4.50001 1C4.50001 0.734784 4.39466 0.48043 4.20712 0.292893C4.01959 0.105357 3.76523 0 3.50002 0H1.50001C1.2348 0 0.980444 0.105357 0.792908 0.292893C0.605371 0.48043 0.500015 0.734784 0.500015 1V6.07764C0.498202 6.82778 0.66605 7.56863 0.990999 8.24474C1.31595 8.92085 1.78959 9.51472 2.37647 9.98193L5.50001 12.4804V13.5C5.50001 15.2239 6.18483 16.8772 7.40382 18.0962C8.62281 19.3152 10.2761 20 12 20C13.7239 20 15.3772 19.3152 16.5962 18.0962C17.8152 16.8772 18.5 15.2239 18.5 13.5V11.8157C19.167 11.5812 19.7295 11.1181 20.0876 10.5085C20.4458 9.89895 20.5766 9.18224 20.4567 8.48544C20.3369 7.78864 19.9743 7.15676 19.4331 6.70182C18.8919 6.24687 18.207 5.99824 17.5 6ZM17.5 10C17.3022 10 17.1089 9.94135 16.9444 9.83147C16.78 9.72159 16.6518 9.56541 16.5761 9.38268C16.5005 9.19996 16.4806 8.99889 16.5192 8.80491C16.5578 8.61093 16.6531 8.43275 16.7929 8.29289C16.9328 8.15304 17.1109 8.0578 17.3049 8.01921C17.4989 7.98063 17.7 8.00043 17.8827 8.07612C18.0654 8.15181 18.2216 8.27998 18.3315 8.44443C18.4414 8.60888 18.5 8.80222 18.5 9C18.4997 9.26511 18.3942 9.51927 18.2067 9.70673C18.0193 9.89419 17.7651 9.99966 17.5 10Z" fill="#909090"/>
</svg>
