<svg width="108" height="106" viewBox="0 0 108 106" fill="none" xmlns="http://www.w3.org/2000/svg">
    <defs>
        <clipPath id="clip0_210_1438">
            <rect width="108" height="106" fill="white" />
        </clipPath>
    </defs>
    <g clip-path="url(#clip0_210_1438)">
        <path fill-rule="evenodd" clip-rule="evenodd"
            d="M72.0226 0.011464C73.7157 -0.0968913 75.7022 0.581756 77.1977 1.249C81.6053 3.2165 85.8267 5.5661 89.8505 7.85867C91.1711 8.60575 92.5199 9.45548 93.9477 10.1798C96.8033 11.6397 99.5009 12.7974 102.357 14.6109C103.892 15.5861 105.556 16.7666 106.166 18.3121C107.295 21.232 105.895 24.8647 104.868 26.9577C103.649 29.4499 102.368 31.7824 101.205 34.0749C98.7447 38.9053 96.3913 43.2909 93.801 48.2353C91.2106 53.1797 88.908 57.896 86.5942 62.618C84.9011 66.1253 82.909 69.7695 81.0579 73.2939C80.0195 75.2671 79.173 77.2118 77.1074 78.0159C76.4575 78.226 75.7719 78.2997 75.0927 78.2326C73.3996 78.0558 71.7856 77.092 70.2788 76.3449C68.772 75.5978 67.2651 74.788 65.8938 74.0181C60.397 70.9386 53.8844 67.9559 48.3989 64.6482C45.769 63.0571 42.6199 61.141 41.2824 58.4036C39.753 55.2613 41.7677 50.8529 43.0093 48.3094C44.2509 45.7659 45.4417 43.6501 46.6776 41.5515C48.0038 39.2703 49.2905 36.9891 50.487 34.8734C53.1085 30.4227 55.5063 25.8412 57.6712 21.1465C58.687 18.8653 59.9286 16.2476 61.0573 14.1034C62.7503 10.847 64.686 7.25986 66.7346 4.07764C67.3893 3.00644 68.1848 2.02994 69.0993 1.17486C69.9243 0.479018 70.9496 0.0709765 72.0226 0.011464Z"
            fill="#C1D5E8" />
        <path
            d="M87.8132 11.7708C87.8753 11.7708 87.9712 11.7708 87.9712 11.845C89.0435 11.634 89.5514 10.4649 90.0198 9.63796C90.2399 9.23875 90.4995 8.80533 90.697 8.3491L89.8505 7.85865L89.4159 7.59631C89.1313 8.03271 88.8695 8.48386 88.6315 8.9479C88.1687 9.78623 87.4294 10.7671 87.8132 11.7708Z"
            fill="white" />
        <path
            d="M85.2229 16.2647C84.4861 17.3065 83.8277 18.4026 83.2533 19.5439C82.9034 20.3423 82.8526 21.1806 83.5693 21.2206C84.1337 21.2206 84.5964 20.2853 84.8278 19.926C85.2116 19.3557 85.6066 18.8253 85.8493 18.4033C86.5434 17.2057 87.2602 16.2647 87.1868 14.8219C86.2105 14.0862 85.6574 15.5975 85.2229 16.2647Z"
            fill="white" />
        <path
            d="M80.6573 25.11C79.5208 26.4846 78.5927 28.0221 77.9032 29.6723C77.7114 30.1514 77.4292 30.8129 77.9822 31.195C78.6651 31.2349 79.0319 30.5677 79.3198 30.1286C79.664 29.5982 79.918 29.0279 80.1888 28.526C80.7532 27.471 81.5489 26.3304 81.5264 25.1043C81.3571 24.956 80.7984 24.8534 80.6573 25.11Z"
            fill="white" />
        <path
            d="M74.7428 35.398C74.1912 36.1618 73.7167 36.9795 73.3263 37.8388C73.078 38.2951 71.7856 39.9603 72.5418 40.428C72.9764 40.696 73.6705 39.9489 73.8794 39.6638C74.194 39.1978 74.4823 38.7142 74.7428 38.2152C75.3692 37.1887 76.0465 36.2933 76.0013 35.09C75.5668 34.7422 75.0476 35.0843 74.7428 35.398Z"
            fill="white" />
        <path
            d="M70.2732 45.0018C70.2732 45.0987 70.1377 45.0702 70.1208 45.15C69.2716 45.8765 68.598 46.7893 68.1512 47.819C67.8634 48.3893 66.5033 50.545 67.2877 50.9442C67.8521 51.2407 68.3487 50.4195 68.6252 50.0317C69.2843 49.0643 69.8638 48.0438 70.3578 46.9807C70.6118 46.4503 71.0745 45.8914 70.9222 45.2299C70.7386 45.08 70.5091 44.9993 70.2732 45.0018Z"
            fill="white" />
        <path
            d="M64.6127 55.3639C63.9738 56.2101 63.3967 57.1021 62.8858 58.0328C62.6261 58.4891 61.1927 60.6733 62.2537 60.8501C62.7729 60.9413 63.1961 60.2 63.4332 59.8635C63.7661 59.3844 64.0709 58.8541 64.2966 58.4891C64.9287 57.4854 65.5721 56.5843 65.4761 55.3639C65.3125 55.2099 64.7538 55.1073 64.6127 55.3639Z"
            fill="white" />
        <path
            d="M59.9737 65.4238C59.8044 65.2698 59.2457 65.1671 59.1046 65.4238C58.474 66.0856 57.969 66.8588 57.6147 67.7049C57.3411 68.2119 57.1126 68.7425 56.9319 69.2903L58.0324 69.8606C58.4205 69.3586 58.7535 68.8156 59.0256 68.241C59.5505 67.3114 60.0697 66.4731 59.9737 65.4238Z"
            fill="white" />
        <path opacity="0.38" fill-rule="evenodd" clip-rule="evenodd"
            d="M73.1682 58.6146C73.0328 59.1506 72.3838 59.0879 72.0395 59.1848C69.4717 59.9262 67.0619 61.6086 66.9942 65.0246C66.9689 65.8663 67.1251 66.7034 67.4519 67.478C67.7787 68.2525 68.2683 68.946 68.8869 69.5102C69.5054 70.0745 70.2379 70.496 71.0337 70.7456C71.8296 70.9952 72.6696 71.0669 73.4955 70.9557C74.8826 70.8057 76.1615 70.1289 77.0735 69.0623C77.3726 68.7315 77.6379 68.0015 78.3772 68.3266C79.0036 69.5356 77.6435 70.4709 76.8309 71.0355C75.7134 71.8098 74.3999 72.2446 73.0456 72.2883C71.6913 72.3321 70.353 71.983 69.1889 71.2823C68.0248 70.5816 67.0836 69.5587 66.4766 68.3346C65.8697 67.1104 65.6224 65.7362 65.7639 64.3745C66.0348 61.4603 68.4107 58.626 71.3792 58.2895C71.6834 58.2154 71.9996 58.2061 72.3075 58.262C72.6155 58.318 72.9086 58.438 73.1682 58.6146Z"
            fill="#334F70" />
        <path fill-rule="evenodd" clip-rule="evenodd"
            d="M72.4345 60.9984C73.3501 60.8973 74.2759 61.0388 75.1209 61.409C75.9136 61.886 76.5373 62.6036 76.9031 63.4596C77.2689 64.3156 77.3581 65.2664 77.1582 66.1766C76.6841 68.013 73.6423 70.3797 70.9503 69.0281C69.979 68.4664 69.2519 67.5566 68.913 66.4789C68.6406 65.44 68.7357 64.3377 69.1819 63.3621C69.628 62.3865 70.3972 61.5989 71.3566 61.1353C71.7088 61.044 72.071 60.998 72.4345 60.9984Z"
            fill="white" />
        <path opacity="0.38" fill-rule="evenodd" clip-rule="evenodd"
            d="M72.5193 61.5744C73.3545 62.772 73.8511 64.6825 74.1446 66.5075C74.2349 67.0777 74.5509 67.7678 74.0656 68.2183C73.3771 68.3723 73.2078 67.6024 73.0046 67.0777C72.8014 66.5531 72.6603 65.9372 72.5193 65.4353C72.2201 64.2947 71.763 62.6409 71.9549 61.814C71.9477 61.7599 71.9604 61.7051 71.9906 61.6599C72.0207 61.6147 72.0663 61.5822 72.1186 61.5687L72.5193 61.5744Z"
            fill="#334F70" />
        <path opacity="0.38" fill-rule="evenodd" clip-rule="evenodd"
            d="M81.769 44.3516C81.6336 44.8876 80.9846 44.8249 80.6403 44.9219C78.0725 45.6689 75.6627 47.3456 75.595 50.7616C75.5692 51.6021 75.7244 52.4382 76.0499 53.2121C76.3754 53.986 76.8633 54.6792 77.48 55.2438C78.0966 55.8084 78.8273 56.2309 79.6215 56.482C80.4156 56.7331 81.2542 56.807 82.0794 56.6984C83.4658 56.5504 84.7448 55.8757 85.6574 54.8107C85.9565 54.4742 86.2217 53.7443 86.961 54.0693C87.5875 55.284 86.2274 56.2193 85.4147 56.7839C84.2973 57.5582 82.9837 57.993 81.6295 58.0367C80.2752 58.0805 78.9369 57.7313 77.7728 57.0307C76.6086 56.33 75.6675 55.3071 75.0605 54.083C74.4535 52.8588 74.2062 51.4846 74.3478 50.1229C74.6187 47.2087 76.9946 44.3687 79.9631 44.0322C80.2697 43.9573 80.5882 43.947 80.8989 44.0019C81.2096 44.0569 81.5058 44.1759 81.769 44.3516Z"
            fill="#334F70" />
        <path fill-rule="evenodd" clip-rule="evenodd"
            d="M81.0409 46.7354C81.955 46.6397 82.8781 46.783 83.7216 47.1517C84.5144 47.6287 85.1381 48.3463 85.5038 49.2023C85.8696 50.0583 85.9589 51.0091 85.7589 51.9193C85.2792 53.75 82.243 56.1167 79.5511 54.7708C78.6054 54.2051 77.8984 53.308 77.5645 52.2501C77.2919 51.2104 77.3868 50.1072 77.8329 49.1306C78.279 48.1541 79.0483 47.3655 80.0082 46.9008C80.3445 46.8036 80.6913 46.7481 81.0409 46.7354Z"
            fill="white" />
        <path opacity="0.38" fill-rule="evenodd" clip-rule="evenodd"
            d="M81.12 47.3114C81.9552 48.509 82.4518 50.4195 82.7453 52.2501C82.8356 52.7862 83.1516 53.5048 82.6663 53.961C81.9778 54.115 81.8028 53.3508 81.6053 52.8204C81.4078 52.29 81.261 51.6798 81.12 51.178C80.8209 50.0374 80.3637 48.3835 80.5556 47.5623C80.5482 47.5076 80.5607 47.4519 80.5908 47.4058C80.6209 47.3596 80.6665 47.3261 80.7193 47.3114H81.12Z"
            fill="#334F70" />
        <path opacity="0.38" fill-rule="evenodd" clip-rule="evenodd"
            d="M89.0717 30.2369C88.9362 30.8072 88.2872 30.7103 87.943 30.8072C85.3695 31.5543 82.9598 33.231 82.892 36.647C82.8682 37.4903 83.0261 38.3287 83.3549 39.1042C83.6837 39.8796 84.1754 40.5736 84.7961 41.1378C85.4167 41.702 86.1514 42.1231 86.9491 42.3718C87.7469 42.6205 88.5886 42.6909 89.4159 42.578C90.8034 42.4239 92.0826 41.7481 92.9996 40.6847C93.293 40.3482 93.5639 39.6182 94.2976 39.9433C94.924 41.158 93.5639 42.0933 92.7513 42.6579C91.6338 43.4322 90.3203 43.867 88.966 43.9107C87.6117 43.9544 86.2734 43.6053 85.1093 42.9047C83.9452 42.204 83.004 41.1811 82.397 39.957C81.7901 38.7328 81.5428 37.3586 81.6843 35.9969C81.9552 33.0827 84.3311 30.2483 87.2996 29.9119C87.6014 29.8426 87.914 29.8357 88.2185 29.8916C88.523 29.9474 88.8132 30.0649 89.0717 30.2369Z"
            fill="#334F70" />
        <path fill-rule="evenodd" clip-rule="evenodd"
            d="M88.3436 32.6264C89.2573 32.5258 90.1812 32.6673 91.0243 33.037C91.8171 33.514 92.4408 34.2316 92.8065 35.0876C93.1723 35.9436 93.2616 36.8944 93.0616 37.8046C92.5876 39.6353 89.5457 42.002 86.8538 40.6561C85.8857 40.0906 85.1597 39.1822 84.8165 38.1069C84.543 37.068 84.6376 35.9652 85.0838 34.9894C85.5301 34.0135 86.2999 33.2261 87.2601 32.7633C87.6141 32.6715 87.9782 32.6255 88.3436 32.6264Z"
            fill="white" />
        <path opacity="0.38" fill-rule="evenodd" clip-rule="evenodd"
            d="M88.4227 33.1967C89.2579 34.4001 89.7546 36.3048 90.048 38.1355C90.1383 38.7057 90.4544 39.3901 89.969 39.8463C89.2805 40.0003 89.1056 39.2304 88.908 38.7057C88.7105 38.1811 88.5638 37.5652 88.4227 37.0576C88.1236 35.917 87.6665 34.2689 87.8583 33.442C87.8509 33.3872 87.8634 33.3316 87.8935 33.2854C87.9236 33.2393 87.9693 33.2057 88.022 33.191L88.4227 33.1967Z"
            fill="#334F70" />
        <path opacity="0.38" fill-rule="evenodd" clip-rule="evenodd"
            d="M96.8202 14.9873C96.6904 15.5575 96.0358 15.4606 95.6915 15.5575C93.1181 16.3046 90.7083 17.9813 90.6123 21.3973C90.5871 22.2418 90.7445 23.0817 91.0737 23.8583C91.4029 24.6349 91.8958 25.3296 92.5181 25.8938C93.1404 26.458 93.877 26.8782 94.6766 27.125C95.4762 27.3718 96.3195 27.4392 97.1475 27.3226C98.5354 27.1744 99.8161 26.4999 100.731 25.435C101.03 25.0985 101.296 24.3685 102.029 24.6936C102.656 25.9083 101.296 26.8436 100.488 27.4082C99.3721 28.1799 98.0608 28.6134 96.7089 28.6575C95.357 28.7015 94.0208 28.3545 92.8575 27.657C91.6942 26.9596 90.7523 25.9409 90.1426 24.7208C89.5329 23.5007 89.2807 22.13 89.4159 20.77C89.6868 17.8558 92.0684 15.0158 95.0312 14.685C95.3341 14.61 95.6489 14.5982 95.9565 14.6501C96.2641 14.7021 96.5579 14.8168 96.8202 14.9873Z"
            fill="#334F70" />
        <path fill-rule="evenodd" clip-rule="evenodd"
            d="M96.0923 17.3483C97.0082 17.2524 97.9332 17.3958 98.7786 17.7647C99.5703 18.2425 100.193 18.9604 100.558 19.8164C100.922 20.6723 101.011 21.6227 100.81 22.5323C100.336 24.3629 97.2943 26.7296 94.6024 25.4123C93.6339 24.8487 92.9092 23.9393 92.5707 22.8631C92.3072 21.8213 92.4116 20.7193 92.866 19.7469C93.3203 18.7746 94.096 17.9929 95.0595 17.5365C95.395 17.4321 95.7418 17.3689 96.0923 17.3483Z"
            fill="white" />
        <path opacity="0.38" fill-rule="evenodd" clip-rule="evenodd"
            d="M96.1882 17.9471C97.0234 19.1448 97.5257 21.0552 97.8192 22.8859C97.9038 23.4219 98.2199 24.1405 97.7345 24.5967C97.046 24.7507 96.8767 23.9808 96.6792 23.4562C96.4817 22.9315 96.3293 22.3156 96.1882 21.8137C95.8891 20.6731 95.432 19.025 95.6238 18.1981C95.6176 18.1435 95.6306 18.0884 95.6605 18.0425C95.6904 17.9966 95.7354 17.9629 95.7875 17.9471H96.1882Z"
            fill="#334F70" />
        <path opacity="0.38" fill-rule="evenodd" clip-rule="evenodd"
            d="M52.8855 47.7562C52.7501 48.2923 52.1011 48.2295 51.7568 48.3265C49.189 49.0679 46.7792 50.7502 46.7115 54.1663C46.6838 55.0095 46.8382 55.8488 47.1638 56.6256C47.4895 57.4025 47.9787 58.0985 48.5973 58.665C49.216 59.2316 49.9494 59.6553 50.7464 59.9065C51.5435 60.1578 52.3851 60.2307 53.2128 60.1201C54.6011 59.9687 55.8813 59.2923 56.7965 58.2267C57.0899 57.8903 57.3608 57.166 58.0945 57.4854C58.7209 58.7001 57.3608 59.6353 56.5481 60.1999C55.4307 60.9743 54.1171 61.409 52.7629 61.4528C51.4086 61.4965 50.0703 61.1474 48.9062 60.4467C47.7421 59.7461 46.8009 58.7232 46.1939 57.499C45.587 56.2749 45.3397 54.9007 45.4812 53.5389C45.7521 50.6248 48.128 47.7904 51.0965 47.4539C51.3992 47.3766 51.7144 47.3635 52.0224 47.4155C52.3303 47.4675 52.6242 47.5835 52.8855 47.7562Z"
            fill="#334F70" />
        <path fill-rule="evenodd" clip-rule="evenodd"
            d="M52.1687 50.1401C53.0823 50.0423 54.0055 50.1837 54.8494 50.5507C55.6422 51.0277 56.2658 51.7453 56.6316 52.6013C56.9974 53.4573 57.0867 54.4081 56.8867 55.3183C56.4127 57.1546 53.3708 59.5214 50.6788 58.1698C49.7108 57.6043 48.9848 56.6959 48.6415 55.6206C48.3681 54.5817 48.4626 53.4789 48.9089 52.503C49.3551 51.5272 50.125 50.7397 51.0852 50.2769C51.4392 50.1852 51.8033 50.1392 52.1687 50.1401Z"
            fill="white" />
        <path opacity="0.38" fill-rule="evenodd" clip-rule="evenodd"
            d="M52.2364 50.716C53.0717 51.9136 53.5683 53.8241 53.8617 55.649C53.952 56.2193 54.2681 56.9094 53.7827 57.3599C53.0942 57.5139 52.9193 56.744 52.7218 56.2193C52.5242 55.6947 52.3775 55.0788 52.2364 54.5712C51.9373 53.4306 51.4802 51.7825 51.6721 50.9555C51.6649 50.9015 51.6775 50.8467 51.7077 50.8015C51.7379 50.7563 51.7834 50.7238 51.8357 50.7103L52.2364 50.716Z"
            fill="#334F70" />
        <path opacity="0.38" fill-rule="evenodd" clip-rule="evenodd"
            d="M61.4861 33.4932C61.3507 34.0293 60.7017 33.9666 60.3574 34.0635C57.7896 34.8049 55.3799 36.4873 55.3122 39.9033C55.2883 40.7451 55.4459 41.5821 55.7741 42.3562C56.1023 43.1302 56.5932 43.8229 57.2128 44.3861C57.8324 44.9493 58.5659 45.3695 59.3623 45.6176C60.1586 45.8657 60.9989 45.9358 61.8248 45.8229C63.2123 45.6736 64.4926 44.9992 65.4084 43.9353C65.7019 43.5931 65.9445 42.8688 66.7064 43.1939C67.3328 44.4086 65.9727 45.3382 65.1601 45.9085C64.0417 46.6808 62.7281 47.1136 61.3742 47.156C60.0203 47.1983 58.6827 46.8484 57.5192 46.1475C56.3557 45.4467 55.4149 44.4241 54.8078 43.2004C54.2008 41.9768 53.9528 40.6032 54.0932 39.2418C54.364 36.3333 56.74 33.4932 59.7367 33.1568C60.0358 33.0936 60.3444 33.0908 60.6446 33.1486C60.9449 33.2063 61.2309 33.3234 61.4861 33.4932Z"
            fill="#334F70" />
        <path fill-rule="evenodd" clip-rule="evenodd"
            d="M60.7525 35.8771C61.668 35.7789 62.593 35.9203 63.4388 36.2877C64.2321 36.7657 64.8559 37.4843 65.2217 38.3413C65.5875 39.1983 65.6765 40.15 65.4761 41.0611C65.0021 42.8917 61.9602 45.2584 59.2683 43.9125C58.2966 43.3486 57.5696 42.4369 57.2309 41.3576C56.9597 40.3187 57.0554 39.2168 57.5014 38.2415C57.9474 37.2662 58.7159 36.4785 59.6746 36.014C60.0268 35.9227 60.3889 35.8767 60.7525 35.8771Z"
            fill="white" />
        <path opacity="0.38" fill-rule="evenodd" clip-rule="evenodd"
            d="M60.8371 36.4531C61.6724 37.6507 62.169 39.5612 62.4625 41.3861C62.5528 41.9279 62.8688 42.6465 62.3835 43.097C61.6949 43.251 61.52 42.4868 61.3225 41.9564C61.1249 41.426 60.9782 40.8158 60.8371 40.314C60.538 39.1734 60.0809 37.5195 60.2728 36.6983C60.2653 36.6436 60.2778 36.5879 60.3079 36.5418C60.338 36.4956 60.3837 36.4621 60.4364 36.4474L60.8371 36.4531Z"
            fill="#334F70" />
        <path opacity="0.38" fill-rule="evenodd" clip-rule="evenodd"
            d="M68.7889 19.3786C68.6535 19.9489 68.0045 19.8519 67.6602 19.9489C65.0868 20.6959 62.677 22.3726 62.6093 25.7886C62.5861 26.6286 62.7434 27.4637 63.0702 28.2365C63.397 29.0092 63.8856 29.7012 64.5023 30.2648C65.1191 30.8285 65.8494 31.2504 66.643 31.5015C67.4366 31.7527 68.2745 31.8271 69.0993 31.7197C70.4867 31.5656 71.766 30.8897 72.6829 29.8263C72.9764 29.4898 73.2473 28.7599 73.9809 29.0849C74.6074 30.2996 73.2473 31.2349 72.4346 31.7995C71.3172 32.5738 70.0036 33.0086 68.6494 33.0523C67.2951 33.0961 65.9568 32.747 64.7927 32.0463C63.6285 31.3456 62.6874 30.3228 62.0804 29.0986C61.4734 27.8744 61.2261 26.5002 61.3677 25.1385C61.6386 22.2243 64.0145 19.39 66.983 19.0535C67.2899 18.9794 67.6087 18.97 67.9195 19.026C68.2302 19.0819 68.5261 19.2019 68.7889 19.3786Z"
            fill="#334F70" />
        <path fill-rule="evenodd" clip-rule="evenodd"
            d="M68.0609 21.768C68.974 21.6682 69.8972 21.8077 70.7416 22.1729C71.5342 22.6516 72.1576 23.3703 72.5232 24.2271C72.8889 25.0838 72.9784 26.0352 72.7789 26.9463C72.3048 28.7769 69.263 31.1436 66.571 29.7977C65.6254 29.2321 64.9184 28.335 64.5845 27.2771C64.3053 26.2383 64.3939 25.1336 64.8349 24.1538C65.2759 23.174 66.0416 22.3806 66.9999 21.9106C67.3469 21.8218 67.703 21.7739 68.0609 21.768Z"
            fill="white" />
        <path opacity="0.38" fill-rule="evenodd" clip-rule="evenodd"
            d="M68.1399 22.3383C68.9751 23.536 69.4717 25.4464 69.7652 27.2771C69.8555 27.8131 70.1715 28.5317 69.6862 28.9879C68.9977 29.1362 68.8227 28.372 68.6308 27.8474C68.439 27.3227 68.2809 26.7068 68.1399 26.1992C67.8408 25.0586 67.3836 23.4048 67.5755 22.5836C67.5681 22.5288 67.5806 22.4732 67.6107 22.427C67.6408 22.3809 67.6864 22.3473 67.7392 22.3326L68.1399 22.3383Z"
            fill="#334F70" />
        <path opacity="0.38" fill-rule="evenodd" clip-rule="evenodd"
            d="M76.5374 4.12898C76.4076 4.69927 75.7529 4.60232 75.4087 4.69927C72.8352 5.44635 70.4255 7.123 70.3634 10.539C70.3386 11.3806 70.4955 12.2175 70.8231 12.9916C71.1506 13.7656 71.641 14.4584 72.2602 15.0217C72.8794 15.585 73.6125 16.0053 74.4086 16.2534C75.2047 16.5016 76.0448 16.5716 76.8703 16.4587C78.2579 16.3093 79.5382 15.635 80.454 14.571C80.7531 14.2345 81.0183 13.5046 81.752 13.8296C82.3784 15.0443 81.0183 15.9739 80.2113 16.5442C79.0933 17.3178 77.7797 17.7519 76.4254 17.7953C75.0711 17.8387 73.7329 17.4896 72.5686 16.7893C71.4044 16.0889 70.4628 15.0664 69.855 13.8427C69.2472 12.619 68.9987 11.2451 69.1387 9.88321C69.4096 6.96903 71.7855 4.12898 74.754 3.7925C75.0584 3.72462 75.3732 3.71943 75.6796 3.77724C75.986 3.83505 76.2777 3.95468 76.5374 4.12898Z"
            fill="#334F70" />
        <path fill-rule="evenodd" clip-rule="evenodd"
            d="M75.8094 6.51278C76.7249 6.41534 77.6498 6.55671 78.4957 6.9234C79.2873 7.40285 79.9095 8.12188 80.2742 8.97861C80.6388 9.83533 80.7274 10.7863 80.5274 11.6967C80.0534 13.5274 77.0115 15.8941 74.3195 14.5482C73.3496 13.9837 72.6246 13.0719 72.2879 11.9933C72.0225 10.9571 72.1224 9.85991 72.5704 8.89004C73.0183 7.92017 73.7864 7.13813 74.7428 6.67817C75.0902 6.5787 75.4485 6.52315 75.8094 6.51278Z"
            fill="white" />
        <path opacity="0.38" fill-rule="evenodd" clip-rule="evenodd"
            d="M75.8715 7.08309C76.7068 8.28071 77.2091 10.1912 77.5025 12.0161C77.5872 12.5864 77.9032 13.2765 77.4179 13.727C76.7294 13.881 76.56 13.1111 76.3625 12.5864C76.165 12.0617 76.0126 11.4458 75.8715 10.944C75.5724 9.80338 75.1153 8.14954 75.3072 7.32262C75.3012 7.26876 75.3144 7.2145 75.3444 7.16957C75.3744 7.12463 75.4192 7.09196 75.4709 7.07739L75.8715 7.08309Z"
            fill="#334F70" />
        <path fill-rule="evenodd" clip-rule="evenodd"
            d="M0.389404 49.1363L2.68067 52.0619C3.80938 53.5047 7.06569 52.8032 9.94952 50.4936C12.8334 48.1839 14.2612 45.1499 13.1325 43.7071L10.8412 40.7815L0.389404 49.1363Z"
            fill="#50C2A0" />
        <path opacity="0.14" fill-rule="evenodd" clip-rule="evenodd"
            d="M0.389404 49.1363L2.68067 52.0619C3.80938 53.5047 7.06569 52.8032 9.94952 50.4936C12.8334 48.1839 14.2612 45.1499 13.1325 43.7071L10.8412 40.7815L0.389404 49.1363Z"
            fill="#334F70" />
        <path fill-rule="evenodd" clip-rule="evenodd"
            d="M10.8412 40.7816C11.9699 42.2187 10.5478 45.2641 7.6583 47.5681C4.76882 49.8721 1.51815 50.5792 0.389445 49.1364C-0.739259 47.6935 0.688551 44.6539 3.57239 42.3442C6.45623 40.0345 9.71254 39.3388 10.8412 40.7816Z"
            fill="#50C2A0" />
        <path
            d="M10.0511 40.2113C9.75903 40.1057 9.45258 40.046 9.14253 40.0345C8.57818 40.6048 7.86709 41.3291 7.20116 42.0534C6.07245 43.2738 4.77444 44.7052 3.73039 45.92C2.68634 47.1347 1.3714 48.5775 0.846558 49.5356C1.06308 49.6657 1.29961 49.7582 1.54635 49.8093C3.56109 48.1498 6.41107 44.7337 8.65154 41.9564C9.14691 41.399 9.61403 40.8165 10.0511 40.2113Z"
            fill="white" />
        <path fill-rule="evenodd" clip-rule="evenodd"
            d="M38.7258 31.155L38.9572 34.879C39.0701 36.7154 42.1402 38.0156 45.8085 37.7818C49.4767 37.548 52.3662 35.877 52.2533 34.0407L52.0276 30.3167L38.7258 31.155Z"
            fill="#50C2A0" />
        <path opacity="0.14" fill-rule="evenodd" clip-rule="evenodd"
            d="M38.7258 31.155L38.9572 34.879C39.0757 36.7154 42.1345 38.0156 45.8084 37.7818C49.4824 37.548 52.3662 35.877 52.2533 34.0407L52.0276 30.3167L38.7258 31.155Z"
            fill="#334F70" />
        <path fill-rule="evenodd" clip-rule="evenodd"
            d="M52.0276 30.3167C52.1405 32.1531 49.251 33.824 45.5827 34.0578C41.9144 34.2916 38.8105 32.9914 38.7258 31.155C38.6412 29.3187 41.4968 27.6421 45.1707 27.4139C48.8447 27.1858 51.9091 28.4804 52.0276 30.3167Z"
            fill="#50C2A0" />
        <path
            d="M51.6947 29.3929C51.5121 29.1456 51.291 28.9299 51.04 28.7542C50.2499 28.8625 49.2623 29.0792 48.3029 29.2902C46.6889 29.6438 44.8152 30.0715 43.2746 30.4707C41.7339 30.8699 39.832 31.292 38.8613 31.7767C38.9652 32.0091 39.1084 32.2214 39.2846 32.404C41.875 32.2044 46.1471 31.0353 49.5501 30.0487C50.2763 29.8699 50.9923 29.651 51.6947 29.3929Z"
            fill="white" />
        <path fill-rule="evenodd" clip-rule="evenodd"
            d="M19.0075 40.8557C18.4053 40.4574 17.8285 40.0212 17.2805 39.5498C15.6496 38.0157 14.4249 35.2498 16.9194 33.8469C18.0266 33.3837 19.2659 33.3592 20.3901 33.7784C22.3722 34.6058 24.2421 35.6847 25.9546 36.9892C27.8226 38.3522 30.1986 40.1657 30.7911 41.5515C30.965 41.9467 31.059 42.3729 31.0678 42.8053C31.0765 43.2377 30.9998 43.6675 30.8422 44.0695C30.6845 44.4715 30.449 44.8378 30.1495 45.1467C29.8501 45.4556 29.4926 45.701 29.0981 45.8686C27.3712 46.6043 25.4693 45.2698 23.3699 43.9182C21.8349 42.9487 20.4917 41.945 19.0075 40.8557Z"
            fill="#334F70" />
        <path
            d="M17.2805 39.5498C17.8285 40.0213 18.4053 40.4574 19.0074 40.8558C19.7862 41.4261 20.5311 41.9964 21.2648 42.5153C21.1237 40.2684 21.6824 37.3314 25.283 36.5273C23.7628 35.4147 22.114 34.4935 20.3731 33.7842C19.2489 33.365 18.0096 33.3894 16.9024 33.8526C14.4249 35.2498 15.6495 38.0157 17.2805 39.5498Z"
            fill="#4FB4C6" />
        <path fill-rule="evenodd" clip-rule="evenodd"
            d="M23.4714 42.1845C23.1779 41.58 22.2242 40.9641 21.2591 40.4223C20.8415 40.1885 20.1643 39.852 19.916 40.1714C19.6676 40.4907 20.3223 41.1351 20.5762 41.3119C21.3371 41.9064 22.2027 42.3496 23.1271 42.6179C23.2144 42.5784 23.2911 42.5185 23.3509 42.4431C23.4108 42.3678 23.452 42.2791 23.4714 42.1845Z"
            fill="white" />
        <path fill-rule="evenodd" clip-rule="evenodd"
            d="M21.8348 39.5041C22.6193 38.7571 20.7061 37.3313 20.2772 38.1069C20.0797 38.4434 20.74 39.4813 21.293 39.6581C21.3888 39.6826 21.4892 39.6813 21.5843 39.6542C21.6793 39.6272 21.7657 39.5755 21.8348 39.5041Z"
            fill="white" />
        <path
            d="M36.982 11.1379C36.2555 12.9232 35.7696 14.7992 35.5373 16.7153C35.3059 18.7912 36.0339 20.4165 37.4053 20.8556C38.9178 21.3347 40.3174 20.0059 41.1413 18.9622C42.27 17.5593 43.0658 15.5405 43.7486 13.5502C41.9427 10.5048 38.8557 10.6645 36.982 11.1379Z"
            fill="#8CDDFF" />
        <path
            d="M42.6482 2.76595C42.33 2.80202 42.0174 2.8767 41.717 2.98836C39.8546 3.87802 38.6695 6.9804 37.8342 9.01634C37.5408 9.72921 37.2699 10.4307 36.9821 11.1378C38.8557 10.6645 41.9427 10.482 43.7543 13.5502C44.0308 12.7517 44.2848 11.9533 44.5218 11.1949C44.9789 9.75202 45.5659 8.24645 45.6505 6.76369C45.865 4.14035 44.7193 2.52073 42.6482 2.76595Z"
            fill="#25364F" />
        <path fill-rule="evenodd" clip-rule="evenodd"
            d="M41.113 5.94248C41.113 6.68956 40.5035 7.78452 39.8207 8.79393C39.5272 9.23306 39.0475 9.93451 38.6243 9.72351C38.1163 9.46117 38.5396 8.58293 38.692 8.25216C39.1396 7.27106 39.77 6.38621 40.5487 5.64593C40.6598 5.64386 40.7696 5.66991 40.8682 5.72171C40.9667 5.77351 41.0509 5.8494 41.113 5.94248Z"
            fill="white" />
        <path fill-rule="evenodd" clip-rule="evenodd"
            d="M40.8816 9.39843C42.0103 9.7349 40.8816 12.113 40.0464 11.5769C39.6852 11.3431 39.8094 9.98583 40.2665 9.5239C40.3485 9.44912 40.4488 9.39801 40.557 9.37594C40.6653 9.35386 40.7774 9.36163 40.8816 9.39843Z"
            fill="white" />
        <path fill-rule="evenodd" clip-rule="evenodd"
            d="M36.9594 15.0101C37.377 15.0843 37.5237 15.6888 37.4165 16.3047C37.3375 16.7951 36.9707 17.7076 36.4628 17.4453C36.3167 17.3075 36.2094 17.133 36.1519 16.9396C36.0944 16.7463 36.0887 16.5409 36.1354 16.3446C36.2144 15.7401 36.4233 14.9132 36.9594 15.0101Z"
            fill="white" />
        <path fill-rule="evenodd" clip-rule="evenodd"
            d="M100.946 31.9934L97.6216 33.6244C95.985 34.4286 95.9568 37.7876 97.5652 41.1352C99.1736 44.4828 101.804 46.5415 103.44 45.7374L106.764 44.1064L100.946 31.9934Z"
            fill="#50C2A0" />
        <path opacity="0.14" fill-rule="evenodd" clip-rule="evenodd"
            d="M100.946 31.9934L97.6216 33.6244C95.985 34.4286 95.9568 37.7876 97.5652 41.1352C99.1736 44.4828 101.804 46.5415 103.44 45.7374L106.764 44.1064L100.946 31.9934Z"
            fill="#334F70" />
        <path fill-rule="evenodd" clip-rule="evenodd"
            d="M106.764 44.1064C105.122 44.9105 102.498 42.8517 100.889 39.5041C99.2808 36.1565 99.309 32.7975 100.946 31.9934C102.582 31.1893 105.212 33.2537 106.815 36.6014C108.418 39.949 108.401 43.308 106.764 44.1064Z"
            fill="#50C2A0" />
        <path
            d="M107.475 43.4562C107.643 43.1892 107.767 42.8964 107.842 42.5894C107.441 41.8936 106.866 41.0553 106.313 40.2455C105.376 38.8654 104.27 37.2742 103.322 35.9854C102.374 34.6965 101.267 33.0826 100.455 32.3583C100.278 32.5416 100.137 32.7562 100.037 32.9914C101.205 35.3353 103.892 38.8882 106.093 41.694C106.51 42.2301 107.007 42.96 107.475 43.4562Z"
            fill="white" />
        <path fill-rule="evenodd" clip-rule="evenodd"
            d="M84.5681 79.0424L86.6506 82.1277C87.6721 83.6447 90.9679 83.177 93.9872 81.0841C97.0064 78.9911 98.66 76.0598 97.6385 74.5371L95.5561 71.4518L84.5681 79.0424Z"
            fill="#50C2A0" />
        <path opacity="0.14" fill-rule="evenodd" clip-rule="evenodd"
            d="M84.5681 79.0424L86.6506 82.1277C87.6777 83.6447 90.9679 83.1827 93.9872 81.0841C97.0064 78.9854 98.66 76.0598 97.6385 74.5371L95.5561 71.4518L84.5681 79.0424Z"
            fill="#334F70" />
        <path fill-rule="evenodd" clip-rule="evenodd"
            d="M95.5786 71.4518C96.6001 72.9744 94.9691 75.9057 91.9273 77.9987C88.8854 80.0917 85.5896 80.5593 84.5907 79.0423C83.5918 77.5254 85.2002 74.5941 88.2364 72.4954C91.2726 70.3967 94.5515 69.9348 95.5786 71.4518Z"
            fill="#50C2A0" />
        <path
            d="M94.8281 70.8359C94.5445 70.7046 94.2412 70.6218 93.9308 70.5907C93.31 71.0926 92.5707 71.7883 91.854 72.4613C90.6463 73.6018 89.2467 74.9363 88.1236 76.0769C86.9937 77.134 85.9465 78.278 84.9915 79.4986C85.1986 79.6463 85.4297 79.7563 85.6743 79.8237C87.8019 78.3124 90.8833 75.1017 93.31 72.4955C93.7728 71.9822 94.4161 71.3777 94.8281 70.8359Z"
            fill="white" />
        <path fill-rule="evenodd" clip-rule="evenodd"
            d="M85.9056 61.831C85.3027 62.2266 84.7241 62.6589 84.1731 63.1255C82.5308 64.6539 81.2892 67.4027 83.778 68.8284C84.681 69.3417 86.1653 69.2904 87.2488 68.9197C89.233 68.1061 91.1067 67.0406 92.8246 65.7489C94.7039 64.3916 97.0911 62.5952 97.695 61.1865C97.8716 60.7929 97.9687 60.3676 97.9807 59.9355C97.9927 59.5034 97.9193 59.0733 97.7648 58.6702C97.6103 58.2672 97.3778 57.8993 97.0809 57.5881C96.784 57.277 96.4287 57.0288 96.0358 56.858C94.3427 56.111 92.407 57.4283 90.2963 58.7742C88.7443 59.7665 87.3955 60.7588 85.9056 61.831Z"
            fill="#334F70" />
        <path
            d="M84.1731 63.1369C84.7241 62.6703 85.3027 62.238 85.9057 61.8424C86.6901 61.2721 87.4351 60.7018 88.1913 60.2C88.0389 62.4469 88.5751 65.3839 92.1418 66.2051C90.617 67.3093 88.9643 68.2209 87.2206 68.9197C86.1371 69.2904 84.6528 69.3417 83.7499 68.8285C81.2893 67.4141 82.5309 64.6824 84.1731 63.1369Z"
            fill="#4FB4C6" />
        <path fill-rule="evenodd" clip-rule="evenodd"
            d="M90.3754 60.5421C90.0763 61.1467 89.1225 61.7512 88.1518 62.2929C87.7342 62.521 87.057 62.8632 86.8087 62.5267C86.5603 62.1903 87.2206 61.5744 87.4746 61.3862C88.2403 60.7953 89.1096 60.3561 90.0368 60.0916C90.1253 60.1331 90.2024 60.1959 90.2614 60.2744C90.3205 60.3529 90.3596 60.4448 90.3754 60.5421Z"
            fill="white" />
        <path fill-rule="evenodd" clip-rule="evenodd"
            d="M88.7274 63.2111C89.5006 63.9639 87.5987 65.3782 87.1585 64.5969C86.9667 64.2547 87.627 63.2282 88.1857 63.0514C88.2819 63.0276 88.3826 63.0299 88.4777 63.0579C88.5728 63.0859 88.659 63.1388 88.7274 63.2111Z"
            fill="white" />
        <path
            d="M76.2496 77.9817C77.8628 79.0148 79.3319 80.2615 80.6177 81.6886C81.9947 83.2455 82.3108 84.9963 81.4586 86.1597C80.4992 87.4371 78.5973 87.1691 77.3332 86.7984C75.6401 86.3022 73.8116 85.1388 72.1073 83.9013C71.8251 80.337 74.4494 78.6889 76.2496 77.9817Z"
            fill="#8CDDFF" />
        <path
            d="M66.8419 74.4572C67.1208 74.2969 67.4184 74.1724 67.7279 74.0866C69.7596 73.733 72.4967 75.5693 74.3421 76.7441C74.9854 77.1547 75.6232 77.5596 76.2496 77.9817C74.4493 78.6888 71.8251 80.3369 72.1073 83.9013C71.4244 83.4108 70.7641 82.9033 70.132 82.4242C68.867 81.5814 67.7024 80.594 66.6613 79.4815C65.0021 77.4513 64.9908 75.4381 66.8419 74.4572Z"
            fill="#25364F" />
        <path fill-rule="evenodd" clip-rule="evenodd"
            d="M69.895 76.1283C70.307 76.7499 71.447 77.2689 72.5926 77.7251C73.0836 77.9133 73.885 78.2099 74.1051 77.7878C74.3703 77.2746 73.5125 76.7955 73.2078 76.6472C72.2794 76.1114 71.2585 75.7592 70.1998 75.6093C70.1116 75.6648 70.0379 75.741 69.9848 75.8313C69.9318 75.9216 69.901 76.0234 69.895 76.1283Z"
            fill="white" />
        <path fill-rule="evenodd" clip-rule="evenodd"
            d="M72.0959 78.8143C71.351 79.761 73.6423 81.0384 74.0204 80.1146C74.1841 79.7096 73.3093 78.6717 72.6716 78.5634C72.5623 78.551 72.4518 78.5676 72.3508 78.6116C72.2499 78.6556 72.162 78.7255 72.0959 78.8143Z"
            fill="white" />
        <path fill-rule="evenodd" clip-rule="evenodd"
            d="M78.4788 81.1297C78.1854 81.4319 78.4224 82.0079 78.8513 82.4528C79.1956 82.8063 80.0195 83.3367 80.2791 82.8234C80.3197 82.6258 80.3076 82.4209 80.2441 82.2295C80.1807 82.0381 80.0681 81.8672 79.9179 81.7342C79.5116 81.2894 78.8626 80.7362 78.4788 81.1297Z"
            fill="white" />
        <path fill-rule="evenodd" clip-rule="evenodd"
            d="M23.5278 8.58298C25.678 9.50685 26.4568 11.2462 25.4466 13.4362C24.3518 15.82 22.021 17.2856 20.4465 18.295C16.1425 21.0967 11.2744 22.893 6.19659 23.5531C5.10175 23.7071 4.04077 23.9181 3.13216 23.6615C2.23532 23.3761 1.45862 22.796 0.925547 22.0133C-0.045138 20.542 0.361195 18.3464 2.00346 16.1621C2.66452 15.3899 3.42354 14.7092 4.26087 14.1376C6.47415 12.5074 8.88229 11.1661 11.4281 10.1456C14.6337 8.86813 18.3584 7.65341 21.8799 8.10964C22.4482 8.1897 23.0028 8.349 23.5278 8.58298Z"
            fill="#C1D5E8" />
        <path
            d="M28.0878 20.5419C28.342 20.0811 28.4884 19.5675 28.5158 19.0406C28.5432 18.5137 28.4509 17.9875 28.2458 17.5023L25.7909 10.904C25.9763 11.7626 25.8544 12.6598 25.4467 13.4361C24.3518 15.8199 22.021 17.2856 20.4465 18.295C16.1425 21.0966 11.2744 22.8929 6.19662 23.553C5.10178 23.707 4.04079 23.918 3.13219 23.6614C2.23535 23.3761 1.45865 22.7959 0.925573 22.0133C0.80458 21.8354 0.704217 21.644 0.626465 21.443L3.16041 28.1838C3.24296 28.5146 3.38035 28.8289 3.56674 29.1134C4.10078 29.8964 4.8769 30.478 5.77336 30.7672C6.68196 31.0182 7.74294 30.8072 8.84343 30.6532C13.9196 29.9935 18.786 28.1971 23.0877 25.3951C24.6622 24.3914 26.993 22.9257 28.0878 20.5419Z"
            fill="#334F70" />
        <path
            d="M28.0878 20.542C28.1386 20.4393 28.1781 20.3367 28.2176 20.234C27.3485 18.1924 26.5697 15.7572 25.2322 13.8582C24.9721 14.3371 24.6618 14.7865 24.3066 15.1983C24.3461 15.2782 24.3857 15.3637 24.4195 15.4436C25.1346 17.1709 25.9642 18.8476 26.9027 20.4621C27.0889 20.7815 27.2864 21.1807 27.5234 21.54C27.7389 21.2239 27.9277 20.89 28.0878 20.542Z"
            fill="#C1D5E8" />
        <path
            d="M22.2919 17.046C22.004 17.257 21.7275 17.4566 21.4397 17.6163C21.6231 17.8134 21.7928 18.023 21.9476 18.2436C22.6305 19.35 23.0763 20.7073 23.7818 21.9106C24.1204 22.4809 24.5606 23.1025 24.9782 23.6956C25.0417 23.7794 25.1001 23.867 25.1531 23.9579C25.4692 23.7127 25.7796 23.4561 26.0843 23.1767C26.0843 23.1196 26.0222 23.0683 25.9997 23.0113C25.0798 21.289 23.7479 18.5744 22.2919 17.046Z"
            fill="#C1D5E8" />
        <path
            d="M21.88 22.7889C21.2197 21.2833 20.5651 19.6694 19.7072 18.7569L18.8381 19.2702C18.8381 19.8405 19.3122 20.4107 19.5492 20.981C20.1926 22.4638 20.6271 23.9009 21.3834 25.3038C21.5188 25.5605 21.6768 25.8741 21.8631 26.1764C22.2468 25.9483 22.6306 25.7144 22.9918 25.4692C22.9184 25.281 22.8337 25.0871 22.7604 24.8989C22.5121 24.1918 22.1735 23.4675 21.88 22.7889Z"
            fill="#C1D5E8" />
        <path
            d="M19.0131 26.108C18.4487 24.8134 17.8844 23.4903 17.32 22.287C17.0721 21.6757 16.727 21.1094 16.2986 20.6104C15.9769 20.7643 15.6496 20.9069 15.3279 21.0495C15.3658 21.5663 15.4998 22.0713 15.7229 22.5379C16.2925 23.9526 16.9955 25.3085 17.8223 26.587C18.0386 27.0428 18.3097 27.4699 18.6293 27.8587C18.9567 27.7105 19.284 27.5565 19.6057 27.3968C19.4562 26.9463 19.2574 26.514 19.0131 26.108Z"
            fill="#C1D5E8" />
        <path
            d="M14.4475 25.7259C13.9622 24.4547 13.3771 23.2246 12.698 22.0475C12.2973 22.1844 11.891 22.3099 11.4846 22.4296C11.5856 22.8514 11.7119 23.2666 11.8627 23.6729C12.3776 25.2575 12.9901 26.8079 13.6969 28.315C13.8737 28.7069 14.0734 29.0878 14.2951 29.4556C14.7748 29.3131 15.2488 29.1591 15.7229 28.9937C15.5987 28.6458 15.4125 28.2922 15.2884 27.9615C15.0005 27.2543 14.7691 26.473 14.4475 25.7259Z"
            fill="#C1D5E8" />
        <path
            d="M9.96652 24.8933C9.73428 24.2305 9.39063 23.6131 8.95068 23.0684C8.66851 23.1311 8.38633 23.1881 8.09851 23.2394C8.13006 23.9077 8.2871 24.5638 8.56128 25.1727C9.09802 26.6424 9.73345 28.0734 10.4631 29.4556C10.5929 29.7066 10.7227 30.0259 10.8921 30.3168C11.2927 30.2426 11.6878 30.1571 12.0885 30.0658C11.9643 29.7294 11.7781 29.3872 11.6539 29.0564C11.1234 27.6136 10.6099 26.3076 9.96652 24.8933Z"
            fill="#C1D5E8" />
        <path
            d="M7.02056 29.467L5.45166 25.264C5.27874 24.7394 5.06747 24.2285 4.81958 23.7356C4.46378 23.7779 4.10505 23.7893 3.74731 23.7698C3.89939 24.2422 4.08809 24.7018 4.31167 25.1442C4.84216 26.6498 5.24849 28.0641 5.86363 29.5241C6.02734 29.9954 6.23521 30.4499 6.48442 30.8813C6.83106 30.8961 7.1783 30.8828 7.52283 30.8414C7.41671 30.3627 7.24779 29.9005 7.02056 29.467Z"
            fill="#C1D5E8" />
        <path fill-rule="evenodd" clip-rule="evenodd"
            d="M2.98551 21.0666C3.1266 21.9563 0.919982 21.2719 1.52384 20.6275C1.83423 20.291 2.67512 20.77 2.98551 21.0666Z"
            fill="white" />
        <path fill-rule="evenodd" clip-rule="evenodd"
            d="M3.97872 22.2757C3.92059 22.2387 3.87088 22.1898 3.83287 22.132C3.79486 22.0742 3.76941 22.0089 3.75821 21.9405C3.74701 21.872 3.75031 21.8019 3.76789 21.7349C3.78547 21.6678 3.81694 21.6053 3.86021 21.5514C4.19882 21.1864 5.1695 21.4145 5.55326 21.4316C6.04425 21.4316 6.96978 21.2719 7.24632 21.7681C7.60186 22.4696 6.18533 22.5209 5.69435 22.5152C5.43475 22.5152 5.18079 22.5152 4.96069 22.4696C4.57693 22.481 4.26089 22.5095 3.97872 22.2757Z"
            fill="white" />
        <path fill-rule="evenodd" clip-rule="evenodd"
            d="M18.522 9.40415C19.0864 9.01065 21.7163 9.35283 21.547 10.2653C21.4059 11.0067 19.0582 10.6417 18.5615 10.0429C18.4317 9.8832 18.3979 9.74633 18.522 9.40415Z"
            fill="white" />
        <path fill-rule="evenodd" clip-rule="evenodd"
            d="M21.1294 12.0389C21.0221 11.1493 22.3427 11.3774 22.3991 11.9135C22.4669 12.6263 21.2197 12.8259 21.1294 12.0389Z"
            fill="white" />
        <path fill-rule="evenodd" clip-rule="evenodd"
            d="M22.7152 10.2938C22.7772 9.44976 24.792 9.80904 24.634 10.5732C24.5662 10.8926 24.3348 10.9382 23.9229 10.9667C23.3077 11.0067 22.67 10.8869 22.7152 10.2938Z"
            fill="white" />
        <path fill-rule="evenodd" clip-rule="evenodd"
            d="M38.0599 48.7429C38.9008 50.0773 39.4256 51.3263 40.718 51.9422C42.5183 52.7976 45.5883 52.2216 47.2588 53.174C48.4835 53.8755 49.4146 55.6776 50.2781 57.1661C51.1416 58.6545 52.0332 60.2456 52.7895 61.6657C54.4825 64.7908 56.1756 67.8362 57.8235 70.6762C58.749 72.2674 59.4037 73.8585 60.1204 75.3926C61.6103 78.5634 62.9027 81.7057 64.291 85.27C64.9682 86.9809 66.0405 89.9065 65.2955 91.9538C64.5506 94.0011 61.695 95.4554 59.5504 96.5161C53.5231 99.5273 48.3142 102.133 42.0837 104.871C40.4471 105.589 38.3759 106.468 36.4063 105.669C35.4532 105.149 34.6202 104.429 33.9627 103.559C33.0651 102.271 32.2724 100.911 31.5924 99.493C28.6126 93.9954 25.8812 88.3039 22.8224 82.4984C21.3325 79.6469 20.0796 76.8411 18.7252 73.7102C17.9633 71.948 17.2748 70.0888 17.6473 68.1213C17.9125 66.7355 18.776 65.5436 19.5153 64.4886C20.2546 63.4336 21.2084 62.2074 21.3156 60.7817C21.4228 59.356 20.8077 58.415 20.4521 57.2972C24.6622 55.0674 29.0867 53.02 33.4322 50.8358C34.9292 50.0396 36.4749 49.3405 38.0599 48.7429Z"
            fill="#4FB4C6" />
        <path
            d="M44.0703 93.8472C45.7295 93.0488 47.4564 92.1363 48.6641 90.9387C49.1085 90.4692 49.4744 89.9299 49.7477 89.3419C50.312 87.8534 49.7477 86.0456 49.2398 84.6256C48.8673 83.5306 48.3989 82.4756 48.0208 81.5745C46.2205 77.2745 44.6742 73.9668 42.8457 69.8094C41.8693 67.5853 40.5092 64.7566 37.5972 64.7966C35.5373 64.8251 33.6129 65.9371 31.9198 66.6101C30.1364 67.3173 28.4039 68.0187 26.6036 68.8913C24.0401 70.0065 21.5648 71.3182 19.1993 72.8148L18.4995 73.2939L18.697 73.7558C20.0515 76.8867 21.3043 79.7211 22.7942 82.544C25.853 88.3496 28.5845 94.0411 31.5643 99.5387L31.7336 99.858C34.1716 98.6832 36.8127 97.2347 38.9629 96.1968C40.7293 95.3299 42.349 94.6741 44.0703 93.8472Z"
            fill="#C1D5E8" />
        <path fill-rule="evenodd" clip-rule="evenodd"
            d="M31.6601 74.982C32.5687 74.7367 34.0981 73.7958 35.4695 73.7102C36.4402 73.6532 37.6592 76.5959 37.4504 77.9532C37.3375 78.6946 35.1478 79.3675 34.0643 80.1374C34.4593 81.1639 35.5824 82.9432 35.018 83.4565C34.131 84.1898 33.0999 84.7244 31.9931 85.0248C31.2933 85.156 30.4524 82.9889 29.7357 81.968C28.7086 82.5383 27.3203 83.5249 26.2819 83.0174C25.7175 82.7436 24.713 80.8617 24.5549 80.0519C24.2502 78.5178 26.248 77.7707 27.3203 77.0806C27.055 76.1568 26.4229 75.615 26.5415 74.5486C26.66 73.4821 28.2345 72.4727 29.3914 72.3643C30.9716 72.2161 31.1466 73.8984 31.6601 74.982Z"
            fill="white" />
        <path fill-rule="evenodd" clip-rule="evenodd"
            d="M41.4461 84.0724C39.0532 85.1502 35.5599 86.8896 33.0598 88.1614C32.3123 88.4955 31.6027 88.9105 30.9435 89.3989C31.3103 90.0604 31.6602 90.7277 32.0214 91.3892C32.9864 91.3436 34.3127 90.2829 35.0294 89.8951C37.236 88.6975 39.3128 87.7337 41.2937 86.6672C41.6492 86.4733 42.0612 86.2851 42.4224 86.0513C42.112 85.3669 41.7847 84.7054 41.4461 84.0724Z"
            fill="#334F70" />
        <path fill-rule="evenodd" clip-rule="evenodd"
            d="M44.296 89.4103C44.0308 88.9712 43.7825 88.532 43.5398 88.0872C42.5747 88.3381 41.6661 89.1194 40.9381 89.4958C39.2451 90.3798 36.7281 91.6344 35.0406 92.4785C34.5722 92.7123 33.7765 93.0202 33.167 93.3738L33.2178 93.4537C33.5395 93.9726 33.8555 94.4973 34.1715 95.0163C34.3729 94.9043 34.5801 94.8034 34.7923 94.714C37.4422 93.5245 40.0269 92.1919 42.5352 90.722C43.1968 90.4091 43.8344 90.0469 44.4427 89.6384L44.296 89.4103Z"
            fill="#334F70" />
        <path fill-rule="evenodd" clip-rule="evenodd"
            d="M52.733 68.2069C51.7849 67.5111 51.04 65.6748 50.391 63.827C50.1201 63.0343 49.6968 61.7455 50.391 61.4147C51.198 61.0212 51.9034 62.4127 52.1574 62.9089C52.943 64.4133 53.4408 66.054 53.6247 67.7449C53.5263 67.8913 53.3931 68.0103 53.2373 68.0911C53.0815 68.1718 52.9081 68.2116 52.733 68.2069Z"
            fill="white" />
        <path fill-rule="evenodd" clip-rule="evenodd"
            d="M46.5252 61.774C45.0127 62.9145 43.1391 59.1962 44.612 58.6431C45.2441 58.3978 46.813 59.8521 46.9484 60.8786C46.9613 61.0522 46.929 61.2261 46.8547 61.3832C46.7805 61.5403 46.6669 61.675 46.5252 61.774Z"
            fill="white" />
        <path fill-rule="evenodd" clip-rule="evenodd"
            d="M46.102 56.744C45.611 57.2059 44.7306 56.7953 44.059 56.0882C43.4947 55.5179 42.7441 54.1834 43.5511 53.807C43.9123 53.6302 44.6798 53.864 45.2442 54.44C45.9045 55.1016 46.7341 56.1566 46.102 56.744Z"
            fill="white" />
        <path fill-rule="evenodd" clip-rule="evenodd"
            d="M38.5396 102.185C37.2868 102.915 40.402 105.036 40.5882 103.593C40.6841 102.846 39.2338 102.259 38.5396 102.185Z"
            fill="white" />
        <path fill-rule="evenodd" clip-rule="evenodd"
            d="M36.017 102.162C36.3161 102.225 36.9651 102.191 37.0441 101.592C37.1457 100.782 35.8702 99.7896 35.4357 99.3106C34.9108 98.7403 34.1828 97.3488 33.3137 97.537C32.0665 97.805 33.4661 99.6527 33.9684 100.269C34.2393 100.599 34.5327 100.89 34.7754 101.158C35.1874 101.58 35.4413 102.042 36.017 102.162Z"
            fill="white" />
        <path fill-rule="evenodd" clip-rule="evenodd"
            d="M38.2292 44.6083C37.8454 43.9011 37.6027 43.3137 37.1343 42.578C36.6679 41.791 36.0141 41.1342 35.2325 40.6676C34.3182 40.2627 33.2008 40.6105 32.1511 41.0383C30.1307 41.8709 23.2287 45.6006 23.2287 45.6006C21.4002 46.456 19.6959 47.2601 17.9689 48.2753C16.9926 48.8455 16.1179 49.5014 15.7905 50.5051C15.2262 52.3186 16.6032 54.7766 16.9192 55.5123C17.5683 57.0121 18.3978 59.0252 20.7399 58.7629C21.7313 58.5665 22.6843 58.2083 23.5617 57.7022C25.1136 56.9323 34.5722 52.0392 36.1129 51.275C37.0434 50.8865 37.905 50.3471 38.6637 49.6782C40.3173 47.9673 39.008 46.0397 38.2292 44.6083Z"
            fill="#8CDDFF" />
        <path
            d="M17.004 51.9022C19.4081 50.6533 21.7163 49.5754 24.1148 48.3835C24.7413 48.0699 25.5427 47.6022 26.2989 47.1346C26.5641 46.9749 27.5969 46.5643 27.3429 46.0853C27.2301 45.8857 26.7786 45.9142 26.5133 45.9883C26.2238 46.068 25.9422 46.1749 25.6725 46.3077C22.7914 47.3877 19.976 48.6388 17.241 50.0545C16.7388 50.3054 16.2196 50.5564 15.7116 50.8301C15.6207 51.3854 15.6399 51.9533 15.7681 52.501C16.2308 52.2843 16.6485 52.0847 17.004 51.9022Z"
            fill="#4FB4C6" />
        <path
            d="M34.3748 41.8994C33.1773 42.4286 32.0417 43.0903 30.9887 43.8726C30.8502 43.9898 30.7286 44.1261 30.6275 44.2775C30.5655 44.3647 30.5321 44.4694 30.5321 44.5769C30.5321 44.6843 30.5655 44.789 30.6275 44.8763C30.9604 45.2413 31.8352 44.8306 32.3657 44.5854C33.0373 44.2832 33.6411 44.0151 34.1265 43.7414C35.0802 43.2452 36.017 42.7833 36.9482 42.3271C36.6475 41.8899 36.2992 41.4882 35.9098 41.1295L34.3748 41.8994Z"
            fill="#4FB4C6" />
        <path
            d="M21.2535 52.8946C21.8178 52.5866 23.1892 51.9251 22.7942 51.3776C22.4894 50.9499 21.5131 51.4175 20.881 51.6913C19.5322 52.2616 18.1383 53.0201 16.9306 53.6474C16.7387 53.7443 16.4847 53.8584 16.2195 53.9781C16.3775 54.3888 16.5468 54.748 16.6823 55.0332C18.2428 54.4035 19.7687 53.6896 21.2535 52.8946Z"
            fill="#4FB4C6" />
        <path
            d="M37.1513 46.4617C35.9323 47.032 34.4989 47.7049 33.2009 48.4406C32.6365 48.7828 31.6433 49.2789 31.79 49.7808C31.9875 50.4309 33.3307 49.7409 33.9176 49.4671C35.6638 48.6676 37.36 47.7611 38.9968 46.7525L39.2338 46.61C39.1163 46.2897 38.9786 45.9773 38.8218 45.6747C38.2463 45.8945 37.6879 46.1576 37.1513 46.4617Z"
            fill="#4FB4C6" />
        <path
            d="M27.9016 52.6094C28.1612 52.4612 29.352 51.8053 29.1544 51.3605C28.8835 50.7503 27.8903 51.3035 27.5968 51.4061C25.9633 52.032 24.3688 52.7576 22.8224 53.5789C21.191 54.3571 19.6011 55.2214 18.0593 56.168L17.4103 56.5844C17.6269 57.0386 17.9042 57.4608 18.2342 57.839C18.8381 57.5025 19.4419 57.1432 20.0458 56.7954C22.6983 55.2784 25.1645 54.1435 27.9016 52.6094Z"
            fill="#4FB4C6" />
        <path
            d="M28.3644 47.9844C27.5178 48.4007 26.2029 48.8797 26.581 49.5356C27.5517 49.6667 34.6964 46.0283 38.043 44.2547C37.8793 43.9296 37.727 43.6217 37.5576 43.3023C34.9221 44.614 28.8666 47.7392 28.3644 47.9844Z"
            fill="#4FB4C6" />
    </g>

</svg>
