<svg width="21" height="20" viewBox="0 0 21 20" fill="none" xmlns="http://www.w3.org/2000/svg">
<path d="M8.5 15H9.5V16C9.5 16.2652 9.60536 16.5196 9.79289 16.7071C9.98043 16.8946 10.2348 17 10.5 17C10.7652 17 11.0196 16.8946 11.2071 16.7071C11.3946 16.5196 11.5 16.2652 11.5 16V15H12.5C12.7652 15 13.0196 14.8946 13.2071 14.7071C13.3946 14.5196 13.5 14.2652 13.5 14C13.5 13.7348 13.3946 13.4804 13.2071 13.2929C13.0196 13.1054 12.7652 13 12.5 13H11.5V12C11.5 11.7348 11.3946 11.4804 11.2071 11.2929C11.0196 11.1054 10.7652 11 10.5 11C10.2348 11 9.98043 11.1054 9.79289 11.2929C9.60536 11.4804 9.5 11.7348 9.5 12V13H8.5C8.23478 13 7.98043 13.1054 7.79289 13.2929C7.60536 13.4804 7.5 13.7348 7.5 14C7.5 14.2652 7.60536 14.5196 7.79289 14.7071C7.98043 14.8946 8.23478 15 8.5 15ZM17.5 4H15.5V3C15.5 2.20435 15.1839 1.44129 14.6213 0.87868C14.0587 0.316071 13.2956 0 12.5 0H8.5C7.70435 0 6.94129 0.316071 6.37868 0.87868C5.81607 1.44129 5.5 2.20435 5.5 3V4H3.5C2.70435 4 1.94129 4.31607 1.37868 4.87868C0.816071 5.44129 0.5 6.20435 0.5 7V17C0.5 17.7956 0.816071 18.5587 1.37868 19.1213C1.94129 19.6839 2.70435 20 3.5 20H17.5C18.2956 20 19.0587 19.6839 19.6213 19.1213C20.1839 18.5587 20.5 17.7956 20.5 17V7C20.5 6.20435 20.1839 5.44129 19.6213 4.87868C19.0587 4.31607 18.2956 4 17.5 4ZM7.5 3C7.5 2.73478 7.60536 2.48043 7.79289 2.29289C7.98043 2.10536 8.23478 2 8.5 2H12.5C12.7652 2 13.0196 2.10536 13.2071 2.29289C13.3946 2.48043 13.5 2.73478 13.5 3V4H7.5V3ZM18.5 17C18.5 17.2652 18.3946 17.5196 18.2071 17.7071C18.0196 17.8946 17.7652 18 17.5 18H3.5C3.23478 18 2.98043 17.8946 2.79289 17.7071C2.60536 17.5196 2.5 17.2652 2.5 17V10H18.5V17ZM18.5 8H2.5V7C2.5 6.73478 2.60536 6.48043 2.79289 6.29289C2.98043 6.10536 3.23478 6 3.5 6H17.5C17.7652 6 18.0196 6.10536 18.2071 6.29289C18.3946 6.48043 18.5 6.73478 18.5 7V8Z" fill="#909090"/>
</svg>
