<svg width="20" height="20" viewBox="0 0 20 20" fill="none" xmlns="http://www.w3.org/2000/svg">
<path d="M19.6637 8.25258L10.6638 0.252679C10.4809 0.0899189 10.2446 0 9.99979 0C9.75495 0 9.51864 0.0899189 9.33574 0.252679L0.335848 8.25258C0.137585 8.4287 0.0174054 8.67636 0.0017463 8.94109C-0.0139128 9.20582 0.0762318 9.46592 0.252349 9.66418C0.428467 9.86245 0.676131 9.98263 0.940858 9.99829C1.20558 10.0139 1.46569 9.9238 1.66395 9.74768L1.99989 9.44913V19C1.99985 19.1313 2.0257 19.2614 2.07594 19.3827C2.12618 19.5041 2.19984 19.6143 2.2927 19.7072C2.38557 19.8001 2.49582 19.8737 2.61716 19.924C2.7385 19.9742 2.86855 20 2.99988 20H16.9997C17.131 20 17.2611 19.9742 17.3824 19.924C17.5038 19.8737 17.614 19.8001 17.7069 19.7072C17.7997 19.6143 17.8734 19.5041 17.9236 19.3827C17.9739 19.2614 17.9997 19.1313 17.9997 19V9.44913L18.3356 9.74771C18.4338 9.83492 18.5482 9.90193 18.6723 9.94493C18.7963 9.98793 18.9276 10.0061 19.0587 9.99832C19.1898 9.99056 19.3181 9.95707 19.4362 9.89974C19.5543 9.84242 19.66 9.76239 19.7472 9.66422C19.8344 9.56605 19.9015 9.45166 19.9445 9.32759C19.9874 9.20352 20.0056 9.0722 19.9978 8.94112C19.9901 8.81004 19.9566 8.68177 19.8993 8.56364C19.8419 8.4455 19.7619 8.33979 19.6637 8.25258ZM15.9997 18H3.99986V7.67135L9.99979 2.3381L15.9997 7.67135V18Z" fill="#5EAFC0"/>
</svg>
