<svg width="21" height="20" viewBox="0 0 21 20" fill="none" xmlns="http://www.w3.org/2000/svg">
<path fill-rule="evenodd" clip-rule="evenodd" d="M15.5001 5.00002C15.5001 2.23858 13.2615 0 10.5001 0C7.73867 0 5.50009 2.23858 5.50009 5.00002C5.50009 7.75262 7.72437 9.98571 10.4736 9.99996H9.50003C4.52945 9.99996 0.5 14.0294 0.5 19C0.5 19.5523 0.947717 20 1.5 20H19.5001C20.0524 20 20.5001 19.5523 20.5001 19C20.5001 14.0294 16.4706 9.99996 11.5 9.99996H10.5263C11.8429 9.99307 13.1041 9.46706 14.0357 8.53556C14.9733 7.59788 15.5001 6.3261 15.5001 5.00002ZM10.5263 9.99996H10.4736L10.5001 10L10.5263 9.99996ZM9.50001 12C6.01962 11.9991 3.06719 14.5554 2.56999 18.0001H18.43C17.9328 14.5554 14.9804 11.9991 11.5 12H9.50001ZM7.49995 5.00009C7.49995 6.65695 8.8431 8.0001 10.5 8.0001C11.2956 8.0001 12.0587 7.68403 12.6213 7.12141C13.1839 6.5588 13.5 5.79574 13.5 5.00009C13.5 3.34323 12.1568 2.00008 10.5 2.00008C8.8431 2.00008 7.49995 3.34323 7.49995 5.00009Z" fill="#909090"/>
</svg>
