<svg width="20" height="20" viewBox="0 0 20 20" fill="none" xmlns="http://www.w3.org/2000/svg">
<path d="M18.8131 1.18677C18.367 0.740641 17.6515 0.740641 17.2054 1.18677L10 8.39216L2.79463 1.18677C2.34851 0.740641 1.63302 0.740641 1.18689 1.18677C0.740763 1.6329 0.740763 2.34839 1.18689 2.79451L8.39228 9.9999L1.18689 17.2053C0.740763 17.6514 0.740763 18.3669 1.18689 18.813C1.40575 19.0319 1.70036 19.1497 1.98655 19.1497C2.27275 19.1497 2.56736 19.0403 2.78622 18.813L9.9916 11.6076L17.197 18.813C17.4158 19.0319 17.7105 19.1497 17.9967 19.1497C18.2913 19.1497 18.5775 19.0403 18.7963 18.813C19.2424 18.3669 19.2424 17.6514 18.7963 17.2053L11.6078 9.9999L18.8131 2.79451C19.2593 2.34839 19.2593 1.6329 18.8131 1.18677Z" fill="white"/>
</svg>
